<?xml version="1.0" encoding="UTF-8"?>
<svg version="1.1" xmlns="http://www.w3.org/2000/svg" width="96" height="96">
<path d="M0 0 C3.32974529 0.32980228 4.99512824 1.62621588 7.29980469 3.95922852 C7.92014587 4.5797963 8.54048706 5.20036407 9.17962646 5.83973694 C9.83706848 6.51266281 10.4945105 7.18558868 11.171875 7.87890625 C11.8542926 8.5655687 12.53671021 9.25223114 13.23980713 9.95970154 C15.41701196 12.15369415 17.58355281 14.35788916 19.75 16.5625 C21.22456971 18.05211634 22.69982213 19.5410572 24.17578125 21.02929688 C27.79182176 24.67840808 31.39833288 28.33670379 35 32 C37.91128647 30.68808355 39.93317129 29.29885167 42.14453125 27.00317383 C42.73194092 26.39947464 43.31935059 25.79577545 43.92456055 25.17378235 C44.54758057 24.52475449 45.17060059 23.87572662 45.8125 23.20703125 C47.14800885 21.84137755 48.48395968 20.47615597 49.8203125 19.11132812 C51.91907067 16.95662607 54.01369668 14.79828277 56.10058594 12.63208008 C58.11855313 10.54183952 60.15165874 8.4673457 62.1875 6.39453125 C62.81052002 5.73943069 63.43354004 5.08433014 64.07543945 4.40937805 C64.66284912 3.81513535 65.25025879 3.22089264 65.85546875 2.60864258 C66.36746826 2.0795076 66.87946777 1.55037262 67.40698242 1.00520325 C69 0 69 0 71.0715332 0.21195984 C73 1 73 1 75 3 C74.68154344 6.39916823 73.36715302 7.95355781 70.88671875 10.1875 C69.89369751 11.09822266 69.89369751 11.09822266 68.88061523 12.02734375 C67.79502319 13.00380859 67.79502319 13.00380859 66.6875 14 C59.60339754 20.5067654 52.72110738 27.18041663 45.9375 34 C45.0508667 34.89074219 44.1642334 35.78148437 43.25073242 36.69921875 C41.16507587 38.7974333 39.08137298 40.8975375 37 43 C32.91336579 41.3837447 30.21049134 38.44804688 27.203125 35.36328125 C26.65066101 34.80561569 26.09819702 34.24795013 25.5289917 33.67338562 C23.76449486 31.89112195 22.00681205 30.10233665 20.25 28.3125 C17.9461441 25.9718464 15.63906954 23.63443665 13.328125 21.30078125 C12.77499634 20.74206329 12.22186768 20.18334534 11.65197754 19.60769653 C8.05699336 15.99942508 4.37344136 12.54622232 0.47949219 9.25854492 C-1 8 -1 8 -3 6 C-2.63318342 3.06546739 -2.13562754 2.13562754 0 0 Z " fill="#6b7280" transform="translate(9,24)"/>
</svg>
