<?xml version="1.0" encoding="UTF-8"?>
<svg version="1.1" xmlns="http://www.w3.org/2000/svg" width="600" height="600">
<path d="M0 0 C198 0 396 0 600 0 C600 198 600 396 600 600 C402 600 204 600 0 600 C0 402 0 204 0 0 Z " fill="#0965C2" transform="translate(0,0)"/>
<path d="M0 0 C25.37435783 22.333629 32.34148997 55.90856811 34.52903748 88.23913574 C35.09170053 97.12269362 35.13430037 105.98259125 35.11352539 114.88085938 C35.11324248 116.60733539 35.11340327 118.33381153 35.1139679 120.06028748 C35.11425183 124.69350058 35.1084211 129.32668717 35.10139394 133.95989418 C35.09509248 138.8218535 35.09455127 143.68381359 35.09336853 148.54577637 C35.09027507 157.72860963 35.08208875 166.91143081 35.07201904 176.09425879 C35.05869245 188.51996735 35.05334194 200.94567928 35.04751682 213.3713932 C35.03814729 232.91427116 35.01821519 252.45712365 35 272 C5.96 272 -23.08 272 -53 272 C-53.04898438 260.97078125 -53.09796875 249.9415625 -53.1484375 238.578125 C-53.18385384 231.55988832 -53.21975328 224.54165952 -53.2578125 217.5234375 C-53.31803415 206.40203711 -53.37637347 195.28065136 -53.421875 184.15917969 C-53.4550353 176.0563774 -53.49499484 167.95364054 -53.54279006 159.8509109 C-53.56781885 155.56899913 -53.58966671 151.28712942 -53.60334396 147.0051651 C-52.01329311 104.97143052 -52.01329311 104.97143052 -68.80859375 67.98046875 C-79.28761898 57.96530379 -92.05762159 57.62105445 -105.73828125 57.78515625 C-115.54457091 58.06523655 -123.8531467 60.51623801 -132 66 C-132.61488281 66.40734375 -133.22976563 66.8146875 -133.86328125 67.234375 C-145.15088085 75.74387359 -149.68125121 91.3834424 -151.59381962 104.78452015 C-152.91978717 115.28138841 -153.16141124 125.76902999 -153.20532227 136.3371582 C-153.21492858 137.82674412 -153.22494014 139.31632748 -153.23532104 140.8059082 C-153.26207846 144.80706026 -153.28324362 148.80822376 -153.30332303 152.80941415 C-153.3253651 157.00676765 -153.35266364 161.20408708 -153.37937927 165.40141296 C-153.42906214 173.33059635 -153.47409029 181.25979891 -153.51740164 189.18901938 C-153.57627489 199.91724226 -153.6424288 210.64542017 -153.70815182 221.37360287 C-153.81134415 238.24903816 -153.90488693 255.12451276 -154 272 C-183.04 272 -212.08 272 -242 272 C-242 177.62 -242 83.24 -242 -14 C-213.95 -14 -185.9 -14 -157 -14 C-157 -1.13 -157 11.74 -157 25 C-154.20520295 22.20520295 -151.95131076 19.68248053 -149.65258789 16.53369141 C-135.37785483 -2.95245213 -114.56034634 -15.28793073 -91 -20 C-60.85628747 -24.5238381 -23.88292466 -20.45561674 0 0 Z " fill="#FEFEFE" transform="translate(476,239)"/>
<path d="M0 0 C29.37 0 58.74 0 89 0 C89 94.38 89 188.76 89 286 C59.63 286 30.26 286 0 286 C0 191.62 0 97.24 0 0 Z " fill="#FFFFFF" transform="translate(89,225)"/>
<path d="M0 0 C11.24249004 9.49328086 17.83580106 21.67496812 19.2734375 36.30859375 C19.83697176 50.57034531 15.85785752 62.84633632 6.92578125 74.0078125 C-1.753983 83.37786728 -13.79221465 90.61195523 -26.828125 91.33203125 C-43.63175609 91.67465682 -56.65383136 87.43228796 -69.3515625 76.05859375 C-77.41645054 67.57305508 -82.81983194 55.66182507 -83.6640625 43.99609375 C-83.72078125 43.31546875 -83.7775 42.63484375 -83.8359375 41.93359375 C-83.91708766 39.92106977 -83.83445974 38.0029946 -83.6640625 35.99609375 C-83.59574219 35.18914062 -83.52742188 34.3821875 -83.45703125 33.55078125 C-81.63775614 19.83624578 -74.09318595 7.92602646 -63.51171875 -0.7734375 C-43.82531725 -14.83515286 -19.27139692 -14.49593346 0 0 Z " fill="#FEFEFE" transform="translate(165.6640625,94.00390625)"/>
<path d="M0 0 C0.33 0 0.66 0 1 0 C1 11.22 1 22.44 1 34 C-10.55 34 -22.1 34 -34 34 C-31.21381889 32.60690945 -28.48324069 31.33849868 -25.625 30.125 C-14.43943326 25.15567445 -6.89532646 17.11195784 -2 6 C-1.29094062 4.01463373 -0.60578253 2.01927511 0 0 Z " fill="#000000" transform="translate(599,566)"/>
<path d="M0 0 C11.55 0 23.1 0 35 0 C35 11.22 35 22.44 35 34 C33.22821575 31.34232363 32.35253376 29.33980212 31.3125 26.375 C27.48459355 16.74213652 21.09891496 9.93977662 12 5 C8.05798268 3.42691635 4.08941706 2.13126486 0 1 C0 0.67 0 0.34 0 0 Z " fill="#000000" transform="translate(565,0)"/>
<path d="M0 0 C1.77178425 2.65767637 2.64746624 4.66019788 3.6875 7.625 C7.53643615 17.31078437 13.92269147 23.95123762 23 29 C26.61010504 30.54457659 30.24627745 31.8510469 34 33 C34 33.33 34 33.66 34 34 C22.78 34 11.56 34 0 34 C0 22.78 0 11.56 0 0 Z " fill="#000000" transform="translate(0,566)"/>
<path d="M0 0 C11.22 0 22.44 0 34 0 C31.75508598 1.12245701 29.50349458 2.23249619 27.23046875 3.296875 C15.47659932 8.90976258 7.94480552 15.32616597 2.89453125 27.7109375 C2.19727139 29.78634948 1.58776454 31.89096253 1 34 C0.67 34 0.34 34 0 34 C0 22.78 0 11.56 0 0 Z " fill="#000000" transform="translate(0,0)"/>
</svg>
