<?xml version="1.0" encoding="UTF-8"?>
<svg version="1.1" xmlns="http://www.w3.org/2000/svg" width="96" height="96">
<path d="M0 0 C5.53024275 2.51073021 9.53750167 6.95922723 13.578125 11.38671875 C17.9143117 9.49885515 20.8622596 6.47790271 24.26171875 3.26171875 C29.70053106 -1.14069256 35.20897694 -1.16769279 41.99609375 -1.046875 C48.61869363 -0.24522987 53.28041118 2.5815344 57.48828125 7.71875 C62.6733375 15.30633823 63.57816655 21.13143221 62.578125 30.38671875 C59.5918676 38.95796136 53.43994583 43.45580833 45.578125 47.38671875 C37.61610175 48.02409856 30.103626 48.48389121 23.578125 43.38671875 C20.76986706 40.84082401 18.13280397 38.18599464 15.578125 35.38671875 C11.2419383 37.27458235 8.2939904 40.29553479 4.89453125 43.51171875 C-0.54428106 47.91413006 -6.05272694 47.94113029 -12.83984375 47.8203125 C-19.46244363 47.01866737 -24.12416118 44.1919031 -28.33203125 39.0546875 C-33.5170875 31.46709927 -34.42191655 25.64200529 -33.421875 16.38671875 C-28.42889289 2.05571666 -14.17225045 -3.58877955 0 0 Z M-16.421875 13.38671875 C-19.95002186 16.68476907 -21.27393185 18.53940796 -22.109375 23.32421875 C-21.82066109 27.50255058 -20.08085445 30.01735444 -17.19140625 32.9609375 C-14.27072123 35.31424883 -12.1574173 36.06468924 -8.421875 36.38671875 C-1.63054549 34.65533237 2.42772479 29.73035903 6.578125 24.38671875 C3.761091 18.42508865 0.38159877 13.71720347 -5.921875 11.26171875 C-10.36994747 10.06014213 -12.65188367 10.55922525 -16.421875 13.38671875 Z M29.578125 14.38671875 C27.04598833 16.90926399 24.76958748 19.56521081 22.578125 22.38671875 C25.56638454 28.63245039 29.16393041 32.97593093 35.53125 35.8125 C39.1852036 36.8375595 41.24390285 36.05382983 44.578125 34.38671875 C47.69765779 31.87318791 50.02153218 29.29183512 51.16015625 25.39453125 C51.5025161 21.3021367 50.50704609 18.74855154 48.015625 15.51171875 C41.99183744 9.37507335 36.20369074 9.44342556 29.578125 14.38671875 Z " fill="#FBCB00" transform="translate(33.421875,24.61328125)"/>
</svg>
