<?xml version="1.0" encoding="UTF-8"?>
<svg version="1.1" xmlns="http://www.w3.org/2000/svg" width="96" height="96">
<path d="M0 0 C4.8404001 2.60960701 8.06650639 6.09014417 9.796875 11.28125 C10.46204974 18.73993065 10.46118604 24.26674366 5.796875 30.28125 C3.8738503 32.11984923 1.93299732 33.67915826 -0.203125 35.28125 C0.59351563 35.63316406 1.39015625 35.98507813 2.2109375 36.34765625 C11.77218143 40.80259108 17.04925945 45.20898863 21.1171875 54.9921875 C22.17141081 58.54261774 22.06450833 61.60129167 21.796875 65.28125 C19.486875 65.28125 17.176875 65.28125 14.796875 65.28125 C14.64992188 64.41113281 14.64992188 64.41113281 14.5 63.5234375 C13.46994952 58.1423117 12.01908579 54.68493808 8.796875 50.28125 C8.796875 49.62125 8.796875 48.96125 8.796875 48.28125 C8.260625 48.013125 7.724375 47.745 7.171875 47.46875 C5.4487835 46.60720425 3.75358099 45.68915067 2.078125 44.73828125 C-3.53037072 42.24784208 -9.18662082 42.51376883 -15.203125 43.28125 C-17.7032952 44.35595003 -19.61470237 45.51639751 -21.75 47.1875 C-23.203125 48.28125 -23.203125 48.28125 -25.203125 48.28125 C-25.47125 48.8175 -25.739375 49.35375 -26.015625 49.90625 C-26.89087298 51.65674596 -27.81516643 53.38292457 -28.765625 55.09375 C-30.3188076 58.5377636 -30.82884552 61.53845519 -31.203125 65.28125 C-33.513125 65.28125 -35.823125 65.28125 -38.203125 65.28125 C-39.10514826 57.4637151 -36.37303677 51.83133265 -32.203125 45.28125 C-27.90788059 40.14741025 -22.35180339 37.65148884 -16.203125 35.28125 C-16.67363281 34.91773438 -17.14414062 34.55421875 -17.62890625 34.1796875 C-22.55193191 30.20457361 -25.78114765 27.063222 -26.515625 20.48046875 C-26.7808608 13.82470792 -26.29391506 9.58822089 -22.203125 4.28125 C-16.11678464 -1.35974838 -7.95715926 -2.59595267 0 0 Z M-18.203125 11.28125 C-19.81742423 14.50984847 -19.79883157 17.79118653 -19.203125 21.28125 C-17.46710395 24.30633145 -15.36732363 26.69915069 -12.203125 28.28125 C-7.07942102 28.88853845 -7.07942102 28.88853845 -2.37890625 27.234375 C1.42440244 24.10332185 2.68350867 22.41491332 3.171875 17.53125 C3.14746275 14.18066932 2.55288854 12.43230468 0.421875 9.84375 C-3.1079836 6.39793565 -5.1314902 5.88569164 -10.09765625 5.921875 C-13.81905953 6.55706814 -15.60625349 8.62104016 -18.203125 11.28125 Z " fill="#ffffff" transform="translate(56.203125,12.71875)"/>
</svg>
